<svg xmlns="http://www.w3.org/2000/svg" viewBox="0 0 695.32 592.94"><defs><style>.cls-1{fill:#fff;}.cls-1,.cls-2{stroke:#000;}.cls-1,.cls-2,.cls-3{stroke-miterlimit:10;}.cls-2,.cls-3{fill:none;}.cls-3{stroke:#a7a9ac;}.cls-4{fill:#a7a9ac;}.cls-5{font-size:12px;fill:#808285;font-family:MyriadPro-Regular, Myriad Pro;}</style></defs><g id="Layer_2" data-name="Layer 2"><g id="mock_ups" data-name="mock ups"><polygon class="cls-1" points="201.51 0.5 241.68 0.5 261 26.69 187.6 26.69 201.51 0.5"/><polygon class="cls-1" points="598.31 0.5 638.48 0.5 657.8 26.69 584.4 26.69 598.31 0.5"/><rect class="cls-2" x="168.96" y="433.74" width="131.19" height="73.12" rx="6.6"/><rect class="cls-2" x="176.78" y="441.27" width="116.74" height="48.84" rx="6.6"/><circle class="cls-2" cx="235.16" cy="499.08" r="4.81"/><rect class="cls-2" x="174.38" y="511.41" width="131.19" height="73.12" rx="6.6"/><rect class="cls-2" x="182.2" y="518.94" width="89.53" height="58.34" rx="6.6"/><circle class="cls-2" cx="288.72" cy="523.76" r="4.81"/><circle class="cls-2" cx="288.72" cy="537.6" r="4.81"/><rect class="cls-2" x="171.67" y="278.4" width="131.19" height="73.12" rx="6.6"/><rect class="cls-2" x="179.49" y="285.93" width="116.74" height="48.84" rx="6.6"/><circle class="cls-2" cx="237.87" cy="343.75" r="4.81"/><rect class="cls-2" x="237.26" y="205.28" width="131.19" height="73.12" rx="6.6"/><rect class="cls-2" x="245.09" y="212.81" width="116.74" height="48.84" rx="6.6"/><circle class="cls-2" cx="303.46" cy="270.62" r="4.81"/><rect class="cls-2" x="177.09" y="356.07" width="131.19" height="73.12" rx="6.6"/><rect class="cls-2" x="184.91" y="363.6" width="89.53" height="58.34" rx="6.6"/><circle class="cls-2" cx="291.42" cy="368.42" r="4.81"/><circle class="cls-2" cx="291.42" cy="382.26" r="4.81"/><rect class="cls-2" x="555.5" y="511.41" width="131.19" height="73.12" rx="6.6"/><rect class="cls-2" x="563.33" y="518.94" width="116.74" height="48.84" rx="6.6"/><circle class="cls-2" cx="621.7" cy="576.75" r="4.81"/><rect class="cls-2" x="558.21" y="278.4" width="131.19" height="73.12" rx="6.6"/><rect class="cls-2" x="566.04" y="285.93" width="89.53" height="58.34" rx="6.6"/><circle class="cls-2" cx="672.55" cy="290.75" r="4.81"/><circle class="cls-2" cx="672.55" cy="304.59" r="4.81"/><rect class="cls-2" x="558.21" y="356.07" width="131.19" height="73.12" rx="6.6"/><rect class="cls-2" x="566.04" y="363.6" width="116.74" height="48.84" rx="6.6"/><circle class="cls-2" cx="624.41" cy="421.41" r="4.81"/><rect class="cls-2" x="502.45" y="205.28" width="131.19" height="73.12" rx="6.6"/><rect class="cls-2" x="510.27" y="212.81" width="116.74" height="48.84" rx="6.6"/><circle class="cls-2" cx="568.65" cy="270.62" r="4.81"/><rect class="cls-2" x="563.63" y="433.74" width="131.19" height="73.12" rx="6.6"/><rect class="cls-2" x="571.45" y="441.27" width="89.53" height="58.34" rx="6.6"/><circle class="cls-2" cx="677.97" cy="446.09" r="4.81"/><circle class="cls-2" cx="677.97" cy="459.93" r="4.81"/><rect class="cls-2" x="369.86" y="205.28" width="131.19" height="73.12" rx="6.6"/><rect class="cls-2" x="377.68" y="212.81" width="89.53" height="58.34" rx="6.6"/><circle class="cls-2" cx="484.19" cy="217.62" r="4.81"/><circle class="cls-2" cx="484.19" cy="231.47" r="4.81"/><rect class="cls-2" x="0.5" y="431.47" width="61.81" height="73.12" rx="6.6"/><rect class="cls-2" x="3.05" y="509.14" width="61.81" height="73.12" rx="6.6"/><rect class="cls-2" x="1.78" y="276.13" width="61.81" height="73.12" rx="6.6"/><rect class="cls-2" x="8.11" y="199.72" width="61.81" height="73.12" rx="6.6"/><rect class="cls-2" x="4.33" y="353.8" width="61.81" height="73.12" rx="6.6"/><rect class="cls-2" x="163.58" y="26.69" width="131.19" height="73.12" rx="6.6"/><rect class="cls-1" x="229.17" y="26.69" width="131.19" height="73.12" rx="6.6"/><rect class="cls-2" x="550.12" y="26.69" width="131.19" height="73.12" rx="6.6"/><rect class="cls-1" x="494.36" y="26.69" width="131.19" height="73.12" rx="6.6"/><rect class="cls-1" x="361.77" y="26.69" width="131.19" height="73.12" rx="6.6"/><polygon class="cls-2" points="69.92 212.45 103.77 222.5 103.77 250.9 69.92 262.01 69.92 212.45"/><polygon class="cls-2" points="63.58 287.92 97.44 297.96 97.44 326.36 63.58 337.47 63.58 287.92"/><polygon class="cls-2" points="65.92 365.38 99.77 375.42 99.77 403.82 65.92 414.93 65.92 365.38"/><polygon class="cls-2" points="62.58 444.25 96.44 454.29 96.44 482.7 62.58 493.81 62.58 444.25"/><polygon class="cls-2" points="64.92 520.92 98.77 530.96 98.77 559.37 64.92 570.48 64.92 520.92"/><polygon class="cls-1" points="410.97 0.5 451.14 0.5 470.46 26.69 397.06 26.69 410.97 0.5"/><polygon class="cls-1" points="273.44 0.5 313.62 0.5 332.94 26.69 259.54 26.69 273.44 0.5"/><polygon class="cls-1" points="540.54 0.5 580.71 0.5 600.03 26.69 526.63 26.69 540.54 0.5"/><line class="cls-3" x1="460.61" y1="285.58" x2="460.61" y2="577.36"/><polygon class="cls-4" points="455.62 287.04 460.61 278.4 465.6 287.04 455.62 287.04"/><polygon class="cls-4" points="455.62 575.9 460.61 584.53 465.6 575.9 455.62 575.9"/><text class="cls-5" transform="translate(472.81 442.26)">2.5m</text><line class="cls-3" x1="126.95" y1="206.89" x2="126.95" y2="577.36"/><polygon class="cls-4" points="121.96 208.35 126.95 199.72 131.94 208.35 121.96 208.35"/><polygon class="cls-4" points="121.96 575.9 126.95 584.53 131.94 575.9 121.96 575.9"/><text class="cls-5" transform="translate(136.04 395.59)">3.5m</text><text class="cls-5" transform="translate(350.6 578.71)">2m</text><line class="cls-3" x1="312.74" y1="584.53" x2="548.33" y2="584.53"/><polygon class="cls-4" points="314.2 589.52 305.56 584.53 314.2 579.55 314.2 589.52"/><polygon class="cls-4" points="546.87 589.52 555.5 584.53 546.87 579.55 546.87 589.52"/><text class="cls-5" transform="translate(427.36 149.69)">4m</text><line class="cls-3" x1="176.14" y1="155.51" x2="682.22" y2="155.51"/><polygon class="cls-4" points="177.6 160.5 168.96 155.51 177.6 150.53 177.6 160.5"/><polygon class="cls-4" points="680.76 160.5 689.4 155.51 680.76 150.53 680.76 160.5"/></g></g></svg>